# xmcd
#
# Track frame offsets:
#	150
#	16748
#	39246
#	57875
#	75678
#	97380
#	111265
#	124265
#	143561
#	159644
#	173693
#	192801
#	208669
#
# Disc length: 3004 seconds
#
# Revision: 0
# Processed by: cddbd v1.5PL3 Copyright (c) Steve Scherf et al.
# Submitted via: dBpowerAMP V4.0
#
DISCID=aa0bba0d
DTITLE=Various Artist - If This Is Love...I'd Rather Have the Blues
DYEAR=2004
DGENRE=Blues
TTITLE0=Jimmy Thakery and the Drivers - Cool Guitars
TTITLE1=Debbie Davies - Wrong Man for Me
TTITLE2=John Mooney - Brand New Woman
TTITLE3=Studebaker John and the Hawks - Two Time Boogie
TTITLE4=E.C. Scott - Before Quick Can Get Ready
TTITLE5=Chris Cain - Middle Name Is Trouble
TTITLE6=Big Bill Morganfield - Left Alone
TTITLE7=Renee Austin - Bury the Hatchet
TTITLE8=Lloyd Jones - Treat Me Like the Dog I Am
TTITLE9=Nick Curran and the Nitelifes - Shot Down
TTITLE10=Chris Cain - You're the Kind of Woman That Ain't That Hard to Find
TTITLE11=Arthur Adams - What Does She Think She Is
TTITLE12=Jimmy Thakery and the Drivers - You Came Back to Me
EXTD=
EXTT0=
EXTT1=
EXTT2=
EXTT3=
EXTT4=
EXTT5=
EXTT6=
EXTT7=
EXTT8=
EXTT9=
EXTT10=
EXTT11=
EXTT12=
PLAYORDER=
